<svg xmlns="http://www.w3.org/2000/svg" width="390" height="360" viewBox="0 0 130 120"><g fill="none" stroke="#0F4D3C" stroke-width="1.3" stroke-linecap="round" stroke-linejoin="round"><g stroke-width="0.9"><line x1="65.0" y1="18.0" x2="65.0" y2="9.0"/><line x1="38.8" y1="31.6" x2="31.4" y2="26.5"/><line x1="91.2" y1="31.6" x2="98.6" y2="26.5"/><line x1="38.8" y1="50.0" x2="31.4" y2="50.0"/><line x1="91.2" y1="50.0" x2="98.6" y2="50.0"/></g><path stroke-width="1.3" d="M 65,19 C 47,20 40,33 40,47 C 40,58 46,68 51,74 L 79,74 C 84,68 90,58 90,47 C 90,33 83,20 65,19 Z"/><g stroke-width="1.0"><line x1="52.0" y1="78" x2="78.0" y2="78"/><line x1="54.3" y1="86" x2="75.7" y2="86"/><line x1="56.9" y1="94" x2="73.1" y2="94"/></g><path d="M 65,80 L 65,56.0" stroke-width="0.85"/><path d="M 65,56.0 C 70.8,56.0 73.0,50.2 69.6,46.2 C 67.3,43.9 65.0,48.0 65,56.0 Z" stroke-width="0.75"/><path d="M 65,56.0 C 59.2,56.0 57.0,50.2 60.4,46.2 C 62.7,43.9 65.0,48.0 65,56.0 Z" stroke-width="0.75"/></g></svg>