<svg xmlns="http://www.w3.org/2000/svg" width="3.75in" height="2.25in" viewBox="0 0 270.0 162.0">
  <rect x="0" y="0" width="270.0" height="162.0" fill="#FFFFFF"/>
  <rect x="151.444" y="21.000" width="98.556" height="98.556" rx="6" fill="#FFFFFF" stroke="#0F4D3C" stroke-width="0.56"/>
  <rect x="163.444" y="33.000" width="17.996" height="2.571" fill="#0F4D3C"/>
  <rect x="189.153" y="33.000" width="10.284" height="2.571" fill="#0F4D3C"/>
  <rect x="204.578" y="33.000" width="2.571" height="2.571" fill="#0F4D3C"/>
  <rect x="212.291" y="33.000" width="2.571" height="2.571" fill="#0F4D3C"/>
  <rect x="220.004" y="33.000" width="17.996" height="2.571" fill="#0F4D3C"/>
  <rect x="163.444" y="35.571" width="2.571" height="2.571" fill="#0F4D3C"/>
  <rect x="178.869" y="35.571" width="2.571" height="2.571" fill="#0F4D3C"/>
  <rect x="186.582" y="35.571" width="7.713" height="2.571" fill="#0F4D3C"/>
  <rect x="196.866" y="35.571" width="7.713" height="2.571" fill="#0F4D3C"/>
  <rect x="214.862" y="35.571" width="2.571" height="2.571" fill="#0F4D3C"/>
  <rect x="220.004" y="35.571" width="2.571" height="2.571" fill="#0F4D3C"/>
  <rect x="235.429" y="35.571" width="2.571" height="2.571" fill="#0F4D3C"/>
  <rect x="163.444" y="38.142" width="2.571" height="2.571" fill="#0F4D3C"/>
  <rect x="168.586" y="38.142" width="7.713" height="2.571" fill="#0F4D3C"/>
  <rect x="178.869" y="38.142" width="2.571" height="2.571" fill="#0F4D3C"/>
  <rect x="189.153" y="38.142" width="5.142" height="2.571" fill="#0F4D3C"/>
  <rect x="196.866" y="38.142" width="2.571" height="2.571" fill="#0F4D3C"/>
  <rect x="204.578" y="38.142" width="7.713" height="2.571" fill="#0F4D3C"/>
  <rect x="220.004" y="38.142" width="2.571" height="2.571" fill="#0F4D3C"/>
  <rect x="225.146" y="38.142" width="7.713" height="2.571" fill="#0F4D3C"/>
  <rect x="235.429" y="38.142" width="2.571" height="2.571" fill="#0F4D3C"/>
  <rect x="163.444" y="40.713" width="2.571" height="2.571" fill="#0F4D3C"/>
  <rect x="168.586" y="40.713" width="7.713" height="2.571" fill="#0F4D3C"/>
  <rect x="178.869" y="40.713" width="2.571" height="2.571" fill="#0F4D3C"/>
  <rect x="191.724" y="40.713" width="2.571" height="2.571" fill="#0F4D3C"/>
  <rect x="196.866" y="40.713" width="7.713" height="2.571" fill="#0F4D3C"/>
  <rect x="209.720" y="40.713" width="2.571" height="2.571" fill="#0F4D3C"/>
  <rect x="220.004" y="40.713" width="2.571" height="2.571" fill="#0F4D3C"/>
  <rect x="225.146" y="40.713" width="7.713" height="2.571" fill="#0F4D3C"/>
  <rect x="235.429" y="40.713" width="2.571" height="2.571" fill="#0F4D3C"/>
  <rect x="163.444" y="43.284" width="2.571" height="2.571" fill="#0F4D3C"/>
  <rect x="168.586" y="43.284" width="7.713" height="2.571" fill="#0F4D3C"/>
  <rect x="178.869" y="43.284" width="2.571" height="2.571" fill="#0F4D3C"/>
  <rect x="189.153" y="43.284" width="2.571" height="2.571" fill="#0F4D3C"/>
  <rect x="194.295" y="43.284" width="7.713" height="2.571" fill="#0F4D3C"/>
  <rect x="204.578" y="43.284" width="2.571" height="2.571" fill="#0F4D3C"/>
  <rect x="209.720" y="43.284" width="2.571" height="2.571" fill="#0F4D3C"/>
  <rect x="220.004" y="43.284" width="2.571" height="2.571" fill="#0F4D3C"/>
  <rect x="225.146" y="43.284" width="7.713" height="2.571" fill="#0F4D3C"/>
  <rect x="235.429" y="43.284" width="2.571" height="2.571" fill="#0F4D3C"/>
  <rect x="163.444" y="45.854" width="2.571" height="2.571" fill="#0F4D3C"/>
  <rect x="178.869" y="45.854" width="2.571" height="2.571" fill="#0F4D3C"/>
  <rect x="184.011" y="45.854" width="5.142" height="2.571" fill="#0F4D3C"/>
  <rect x="196.866" y="45.854" width="5.142" height="2.571" fill="#0F4D3C"/>
  <rect x="212.291" y="45.854" width="2.571" height="2.571" fill="#0F4D3C"/>
  <rect x="220.004" y="45.854" width="2.571" height="2.571" fill="#0F4D3C"/>
  <rect x="235.429" y="45.854" width="2.571" height="2.571" fill="#0F4D3C"/>
  <rect x="163.444" y="48.425" width="17.996" height="2.571" fill="#0F4D3C"/>
  <rect x="184.011" y="48.425" width="2.571" height="2.571" fill="#0F4D3C"/>
  <rect x="189.153" y="48.425" width="2.571" height="2.571" fill="#0F4D3C"/>
  <rect x="194.295" y="48.425" width="2.571" height="2.571" fill="#0F4D3C"/>
  <rect x="199.437" y="48.425" width="2.571" height="2.571" fill="#0F4D3C"/>
  <rect x="204.578" y="48.425" width="2.571" height="2.571" fill="#0F4D3C"/>
  <rect x="209.720" y="48.425" width="2.571" height="2.571" fill="#0F4D3C"/>
  <rect x="214.862" y="48.425" width="2.571" height="2.571" fill="#0F4D3C"/>
  <rect x="220.004" y="48.425" width="17.996" height="2.571" fill="#0F4D3C"/>
  <rect x="189.153" y="50.996" width="7.713" height="2.571" fill="#0F4D3C"/>
  <rect x="199.437" y="50.996" width="2.571" height="2.571" fill="#0F4D3C"/>
  <rect x="207.149" y="50.996" width="5.142" height="2.571" fill="#0F4D3C"/>
  <rect x="214.862" y="50.996" width="2.571" height="2.571" fill="#0F4D3C"/>
  <rect x="163.444" y="53.567" width="2.571" height="2.571" fill="#0F4D3C"/>
  <rect x="171.157" y="53.567" width="2.571" height="2.571" fill="#0F4D3C"/>
  <rect x="176.298" y="53.567" width="5.142" height="2.571" fill="#0F4D3C"/>
  <rect x="184.011" y="53.567" width="7.713" height="2.571" fill="#0F4D3C"/>
  <rect x="194.295" y="53.567" width="2.571" height="2.571" fill="#0F4D3C"/>
  <rect x="202.007" y="53.567" width="2.571" height="2.571" fill="#0F4D3C"/>
  <rect x="209.720" y="53.567" width="5.142" height="2.571" fill="#0F4D3C"/>
  <rect x="217.433" y="53.567" width="2.571" height="2.571" fill="#0F4D3C"/>
  <rect x="222.575" y="53.567" width="2.571" height="2.571" fill="#0F4D3C"/>
  <rect x="163.444" y="56.138" width="2.571" height="2.571" fill="#0F4D3C"/>
  <rect x="168.586" y="56.138" width="2.571" height="2.571" fill="#0F4D3C"/>
  <rect x="173.728" y="56.138" width="2.571" height="2.571" fill="#0F4D3C"/>
  <rect x="181.440" y="56.138" width="7.713" height="2.571" fill="#0F4D3C"/>
  <rect x="194.295" y="56.138" width="2.571" height="2.571" fill="#0F4D3C"/>
  <rect x="199.437" y="56.138" width="5.142" height="2.571" fill="#0F4D3C"/>
  <rect x="214.862" y="56.138" width="7.713" height="2.571" fill="#0F4D3C"/>
  <rect x="227.716" y="56.138" width="2.571" height="2.571" fill="#0F4D3C"/>
  <rect x="235.429" y="56.138" width="2.571" height="2.571" fill="#0F4D3C"/>
  <rect x="178.869" y="58.709" width="5.142" height="2.571" fill="#0F4D3C"/>
  <rect x="186.582" y="58.709" width="5.142" height="2.571" fill="#0F4D3C"/>
  <rect x="194.295" y="58.709" width="2.571" height="2.571" fill="#0F4D3C"/>
  <rect x="204.578" y="58.709" width="5.142" height="2.571" fill="#0F4D3C"/>
  <rect x="212.291" y="58.709" width="2.571" height="2.571" fill="#0F4D3C"/>
  <rect x="222.575" y="58.709" width="12.854" height="2.571" fill="#0F4D3C"/>
  <rect x="166.015" y="61.280" width="2.571" height="2.571" fill="#0F4D3C"/>
  <rect x="171.157" y="61.280" width="7.713" height="2.571" fill="#0F4D3C"/>
  <rect x="181.440" y="61.280" width="5.142" height="2.571" fill="#0F4D3C"/>
  <rect x="194.295" y="61.280" width="2.571" height="2.571" fill="#0F4D3C"/>
  <rect x="199.437" y="61.280" width="5.142" height="2.571" fill="#0F4D3C"/>
  <rect x="212.291" y="61.280" width="5.142" height="2.571" fill="#0F4D3C"/>
  <rect x="222.575" y="61.280" width="5.142" height="2.571" fill="#0F4D3C"/>
  <rect x="230.287" y="61.280" width="5.142" height="2.571" fill="#0F4D3C"/>
  <rect x="178.869" y="63.851" width="2.571" height="2.571" fill="#0F4D3C"/>
  <rect x="184.011" y="63.851" width="2.571" height="2.571" fill="#0F4D3C"/>
  <rect x="204.578" y="63.851" width="5.142" height="2.571" fill="#0F4D3C"/>
  <rect x="212.291" y="63.851" width="2.571" height="2.571" fill="#0F4D3C"/>
  <rect x="217.433" y="63.851" width="5.142" height="2.571" fill="#0F4D3C"/>
  <rect x="227.716" y="63.851" width="2.571" height="2.571" fill="#0F4D3C"/>
  <rect x="232.858" y="63.851" width="5.142" height="2.571" fill="#0F4D3C"/>
  <rect x="171.157" y="66.422" width="2.571" height="2.571" fill="#0F4D3C"/>
  <rect x="176.298" y="66.422" width="2.571" height="2.571" fill="#0F4D3C"/>
  <rect x="181.440" y="66.422" width="7.713" height="2.571" fill="#0F4D3C"/>
  <rect x="194.295" y="66.422" width="2.571" height="2.571" fill="#0F4D3C"/>
  <rect x="202.007" y="66.422" width="2.571" height="2.571" fill="#0F4D3C"/>
  <rect x="207.149" y="66.422" width="2.571" height="2.571" fill="#0F4D3C"/>
  <rect x="212.291" y="66.422" width="7.713" height="2.571" fill="#0F4D3C"/>
  <rect x="171.157" y="68.993" width="2.571" height="2.571" fill="#0F4D3C"/>
  <rect x="178.869" y="68.993" width="5.142" height="2.571" fill="#0F4D3C"/>
  <rect x="189.153" y="68.993" width="7.713" height="2.571" fill="#0F4D3C"/>
  <rect x="202.007" y="68.993" width="5.142" height="2.571" fill="#0F4D3C"/>
  <rect x="209.720" y="68.993" width="2.571" height="2.571" fill="#0F4D3C"/>
  <rect x="217.433" y="68.993" width="5.142" height="2.571" fill="#0F4D3C"/>
  <rect x="225.146" y="68.993" width="12.854" height="2.571" fill="#0F4D3C"/>
  <rect x="166.015" y="71.563" width="2.571" height="2.571" fill="#0F4D3C"/>
  <rect x="173.728" y="71.563" width="2.571" height="2.571" fill="#0F4D3C"/>
  <rect x="181.440" y="71.563" width="2.571" height="2.571" fill="#0F4D3C"/>
  <rect x="186.582" y="71.563" width="2.571" height="2.571" fill="#0F4D3C"/>
  <rect x="191.724" y="71.563" width="10.284" height="2.571" fill="#0F4D3C"/>
  <rect x="204.578" y="71.563" width="7.713" height="2.571" fill="#0F4D3C"/>
  <rect x="220.004" y="71.563" width="10.284" height="2.571" fill="#0F4D3C"/>
  <rect x="232.858" y="71.563" width="2.571" height="2.571" fill="#0F4D3C"/>
  <rect x="163.444" y="74.134" width="5.142" height="2.571" fill="#0F4D3C"/>
  <rect x="178.869" y="74.134" width="5.142" height="2.571" fill="#0F4D3C"/>
  <rect x="186.582" y="74.134" width="23.138" height="2.571" fill="#0F4D3C"/>
  <rect x="212.291" y="74.134" width="7.713" height="2.571" fill="#0F4D3C"/>
  <rect x="232.858" y="74.134" width="2.571" height="2.571" fill="#0F4D3C"/>
  <rect x="181.440" y="76.705" width="5.142" height="2.571" fill="#0F4D3C"/>
  <rect x="189.153" y="76.705" width="5.142" height="2.571" fill="#0F4D3C"/>
  <rect x="202.007" y="76.705" width="2.571" height="2.571" fill="#0F4D3C"/>
  <rect x="207.149" y="76.705" width="2.571" height="2.571" fill="#0F4D3C"/>
  <rect x="217.433" y="76.705" width="7.713" height="2.571" fill="#0F4D3C"/>
  <rect x="227.716" y="76.705" width="2.571" height="2.571" fill="#0F4D3C"/>
  <rect x="235.429" y="76.705" width="2.571" height="2.571" fill="#0F4D3C"/>
  <rect x="163.444" y="79.276" width="2.571" height="2.571" fill="#0F4D3C"/>
  <rect x="173.728" y="79.276" width="7.713" height="2.571" fill="#0F4D3C"/>
  <rect x="184.011" y="79.276" width="7.713" height="2.571" fill="#0F4D3C"/>
  <rect x="196.866" y="79.276" width="2.571" height="2.571" fill="#0F4D3C"/>
  <rect x="207.149" y="79.276" width="2.571" height="2.571" fill="#0F4D3C"/>
  <rect x="214.862" y="79.276" width="2.571" height="2.571" fill="#0F4D3C"/>
  <rect x="222.575" y="79.276" width="5.142" height="2.571" fill="#0F4D3C"/>
  <rect x="232.858" y="79.276" width="5.142" height="2.571" fill="#0F4D3C"/>
  <rect x="171.157" y="81.847" width="5.142" height="2.571" fill="#0F4D3C"/>
  <rect x="181.440" y="81.847" width="5.142" height="2.571" fill="#0F4D3C"/>
  <rect x="189.153" y="81.847" width="10.284" height="2.571" fill="#0F4D3C"/>
  <rect x="202.007" y="81.847" width="10.284" height="2.571" fill="#0F4D3C"/>
  <rect x="214.862" y="81.847" width="2.571" height="2.571" fill="#0F4D3C"/>
  <rect x="220.004" y="81.847" width="2.571" height="2.571" fill="#0F4D3C"/>
  <rect x="232.858" y="81.847" width="5.142" height="2.571" fill="#0F4D3C"/>
  <rect x="163.444" y="84.418" width="2.571" height="2.571" fill="#0F4D3C"/>
  <rect x="168.586" y="84.418" width="5.142" height="2.571" fill="#0F4D3C"/>
  <rect x="176.298" y="84.418" width="12.854" height="2.571" fill="#0F4D3C"/>
  <rect x="194.295" y="84.418" width="2.571" height="2.571" fill="#0F4D3C"/>
  <rect x="199.437" y="84.418" width="2.571" height="2.571" fill="#0F4D3C"/>
  <rect x="204.578" y="84.418" width="2.571" height="2.571" fill="#0F4D3C"/>
  <rect x="214.862" y="84.418" width="12.854" height="2.571" fill="#0F4D3C"/>
  <rect x="230.287" y="84.418" width="2.571" height="2.571" fill="#0F4D3C"/>
  <rect x="184.011" y="86.989" width="7.713" height="2.571" fill="#0F4D3C"/>
  <rect x="196.866" y="86.989" width="2.571" height="2.571" fill="#0F4D3C"/>
  <rect x="202.007" y="86.989" width="5.142" height="2.571" fill="#0F4D3C"/>
  <rect x="212.291" y="86.989" width="5.142" height="2.571" fill="#0F4D3C"/>
  <rect x="225.146" y="86.989" width="2.571" height="2.571" fill="#0F4D3C"/>
  <rect x="230.287" y="86.989" width="7.713" height="2.571" fill="#0F4D3C"/>
  <rect x="163.444" y="89.560" width="17.996" height="2.571" fill="#0F4D3C"/>
  <rect x="189.153" y="89.560" width="15.425" height="2.571" fill="#0F4D3C"/>
  <rect x="214.862" y="89.560" width="2.571" height="2.571" fill="#0F4D3C"/>
  <rect x="220.004" y="89.560" width="2.571" height="2.571" fill="#0F4D3C"/>
  <rect x="225.146" y="89.560" width="2.571" height="2.571" fill="#0F4D3C"/>
  <rect x="232.858" y="89.560" width="2.571" height="2.571" fill="#0F4D3C"/>
  <rect x="163.444" y="92.131" width="2.571" height="2.571" fill="#0F4D3C"/>
  <rect x="178.869" y="92.131" width="2.571" height="2.571" fill="#0F4D3C"/>
  <rect x="184.011" y="92.131" width="7.713" height="2.571" fill="#0F4D3C"/>
  <rect x="196.866" y="92.131" width="2.571" height="2.571" fill="#0F4D3C"/>
  <rect x="204.578" y="92.131" width="2.571" height="2.571" fill="#0F4D3C"/>
  <rect x="209.720" y="92.131" width="2.571" height="2.571" fill="#0F4D3C"/>
  <rect x="214.862" y="92.131" width="2.571" height="2.571" fill="#0F4D3C"/>
  <rect x="225.146" y="92.131" width="10.284" height="2.571" fill="#0F4D3C"/>
  <rect x="163.444" y="94.702" width="2.571" height="2.571" fill="#0F4D3C"/>
  <rect x="168.586" y="94.702" width="7.713" height="2.571" fill="#0F4D3C"/>
  <rect x="178.869" y="94.702" width="2.571" height="2.571" fill="#0F4D3C"/>
  <rect x="191.724" y="94.702" width="2.571" height="2.571" fill="#0F4D3C"/>
  <rect x="199.437" y="94.702" width="5.142" height="2.571" fill="#0F4D3C"/>
  <rect x="209.720" y="94.702" width="2.571" height="2.571" fill="#0F4D3C"/>
  <rect x="214.862" y="94.702" width="12.854" height="2.571" fill="#0F4D3C"/>
  <rect x="232.858" y="94.702" width="2.571" height="2.571" fill="#0F4D3C"/>
  <rect x="163.444" y="97.272" width="2.571" height="2.571" fill="#0F4D3C"/>
  <rect x="168.586" y="97.272" width="7.713" height="2.571" fill="#0F4D3C"/>
  <rect x="178.869" y="97.272" width="2.571" height="2.571" fill="#0F4D3C"/>
  <rect x="184.011" y="97.272" width="5.142" height="2.571" fill="#0F4D3C"/>
  <rect x="194.295" y="97.272" width="12.854" height="2.571" fill="#0F4D3C"/>
  <rect x="212.291" y="97.272" width="2.571" height="2.571" fill="#0F4D3C"/>
  <rect x="220.004" y="97.272" width="12.854" height="2.571" fill="#0F4D3C"/>
  <rect x="235.429" y="97.272" width="2.571" height="2.571" fill="#0F4D3C"/>
  <rect x="163.444" y="99.843" width="2.571" height="2.571" fill="#0F4D3C"/>
  <rect x="168.586" y="99.843" width="7.713" height="2.571" fill="#0F4D3C"/>
  <rect x="178.869" y="99.843" width="2.571" height="2.571" fill="#0F4D3C"/>
  <rect x="186.582" y="99.843" width="5.142" height="2.571" fill="#0F4D3C"/>
  <rect x="212.291" y="99.843" width="2.571" height="2.571" fill="#0F4D3C"/>
  <rect x="225.146" y="99.843" width="7.713" height="2.571" fill="#0F4D3C"/>
  <rect x="235.429" y="99.843" width="2.571" height="2.571" fill="#0F4D3C"/>
  <rect x="163.444" y="102.414" width="2.571" height="2.571" fill="#0F4D3C"/>
  <rect x="178.869" y="102.414" width="2.571" height="2.571" fill="#0F4D3C"/>
  <rect x="186.582" y="102.414" width="5.142" height="2.571" fill="#0F4D3C"/>
  <rect x="194.295" y="102.414" width="2.571" height="2.571" fill="#0F4D3C"/>
  <rect x="199.437" y="102.414" width="5.142" height="2.571" fill="#0F4D3C"/>
  <rect x="212.291" y="102.414" width="5.142" height="2.571" fill="#0F4D3C"/>
  <rect x="220.004" y="102.414" width="7.713" height="2.571" fill="#0F4D3C"/>
  <rect x="232.858" y="102.414" width="2.571" height="2.571" fill="#0F4D3C"/>
  <rect x="163.444" y="104.985" width="17.996" height="2.571" fill="#0F4D3C"/>
  <rect x="184.011" y="104.985" width="10.284" height="2.571" fill="#0F4D3C"/>
  <rect x="214.862" y="104.985" width="2.571" height="2.571" fill="#0F4D3C"/>
  <rect x="220.004" y="104.985" width="2.571" height="2.571" fill="#0F4D3C"/>
  <rect x="225.146" y="104.985" width="2.571" height="2.571" fill="#0F4D3C"/>
  <rect x="232.858" y="104.985" width="2.571" height="2.571" fill="#0F4D3C"/>
  <text x="20.000" y="30.000" text-anchor="start" font-family="Montserrat" font-size="10.5" font-weight="500" font-style="normal" fill="#000000">Most career advice</text>
  <text x="20.000" y="43.000" text-anchor="start" font-family="Montserrat" font-size="10.5" font-weight="500" font-style="normal" fill="#000000">focuses on what to do.</text>
  <text x="20.000" y="58.000" text-anchor="start" font-family="EB Garamond" font-size="12" font-weight="normal" font-style="italic" fill="#0F4D3C">I focus on how to think.</text>
  <line x1="20.000" y1="67.000" x2="70.400" y2="67.000" stroke="#0F4D3C" stroke-width="0.9"/>
  <text x="20.000" y="82.000" text-anchor="start" font-family="Montserrat" font-size="9.5" font-weight="normal" font-style="normal" fill="#000000">Gain perspective.</text>
  <text x="20.000" y="95.000" text-anchor="start" font-family="Montserrat" font-size="9.5" font-weight="normal" font-style="normal" fill="#000000">Build a strategy.</text>
  <text x="20.000" y="108.000" text-anchor="start" font-family="Montserrat" font-size="9.5" font-weight="normal" font-style="normal" fill="#000000">Move forward with clarity.</text>
  <line x1="18.000" y1="126.000" x2="252.000" y2="126.000" stroke="#0F4D3C" stroke-width="0.9"/>
  <circle cx="25.000" cy="136.000" r="5" fill="#0F4D3C"/>
  <g stroke="#FFFFFF" stroke-width="1.0" stroke-linecap="round" stroke-linejoin="round" fill="none">
    <line x1="22.800" y1="136.000" x2="27.000" y2="136.000"/>
    <path d="M 25.100,133.900 L 27.200,136.000 L 25.100,138.100"/>
  </g>
  <text x="43.000" y="139.000" text-anchor="start" font-family="Montserrat" font-size="5.5" font-weight="700" font-style="normal" fill="#0F4D3C" letter-spacing="0.110">BOOK YOUR FREE DISCOVERY CALL</text>
  <line x1="157.624" y1="132.000" x2="157.624" y2="141.200" stroke="#0F4D3C" stroke-width="0.8"/>
  <text x="250.000" y="139.000" text-anchor="end" font-family="Montserrat" font-size="6.3" font-weight="600" font-style="normal" fill="#0F4D3C" letter-spacing="0.126">REIMAGINEDBYMIRA.COM</text>
</svg>
